<svg xmlns="http://www.w3.org/2000/svg" xmlns:xlink="http://www.w3.org/1999/xlink" zoomAndPan="magnify" preserveAspectRatio="xMidYMid meet" version="1.0" viewBox="58.43 107.22 259.02 135.44"><defs><g/><clipPath id="1a98735e52"><path d="M 142.914062 107.21875 L 232.164062 107.21875 L 232.164062 197.21875 L 142.914062 197.21875 Z M 142.914062 107.21875 " clip-rule="nonzero"/></clipPath></defs><g clip-path="url(#1a98735e52)"><path fill="#e52687" d="M 182.625 159.757812 C 179.453125 157.445312 176.097656 155.378906 172.636719 153.609375 C 168.292969 151.398438 168.496094 146.878906 168.660156 145.542969 C 169.027344 142.601562 170.9375 138.824219 175.113281 137.882812 L 175.152344 137.875 C 175.269531 137.84375 175.425781 137.816406 175.59375 137.785156 L 175.628906 137.777344 L 175.644531 137.777344 L 175.660156 137.773438 C 176.160156 137.671875 176.679688 137.625 177.207031 137.625 C 180.632812 137.625 184.125 139.726562 185.695312 142.738281 L 189.054688 149.191406 L 192.210938 142.636719 C 193.648438 139.648438 197.042969 137.644531 200.65625 137.644531 C 201.199219 137.644531 201.734375 137.691406 202.253906 137.78125 L 202.273438 137.785156 L 202.296875 137.789062 C 202.425781 137.8125 202.570312 137.839844 202.75 137.878906 C 206.652344 138.769531 208.796875 142.375 209.195312 145.558594 C 209.359375 146.890625 209.558594 151.402344 205.226562 153.605469 C 201.757812 155.378906 198.402344 157.445312 195.230469 159.757812 L 195.226562 159.757812 L 195.003906 159.921875 C 194.84375 160.039062 194.679688 160.160156 194.519531 160.28125 L 194.253906 160.476562 C 192.421875 161.839844 190.640625 163.304688 188.925781 164.855469 C 187.214844 163.304688 185.410156 161.820312 183.597656 160.476562 L 182.632812 159.757812 Z M 189.230469 107.222656 C 177.769531 107.222656 166.996094 111.695312 158.890625 119.816406 C 150.785156 127.9375 146.324219 138.738281 146.324219 150.222656 C 146.324219 158.15625 148.472656 165.832031 152.554688 172.550781 L 145.972656 189.460938 L 142.949219 197.222656 L 150.695312 194.195312 L 167.824219 187.496094 C 174.320312 191.246094 181.679688 193.222656 189.230469 193.222656 C 198.445312 193.222656 207.226562 190.335938 214.621094 184.878906 C 215.628906 184.144531 216.636719 183.332031 217.601562 182.476562 C 226.832031 174.324219 232.132812 162.566406 232.132812 150.222656 C 232.132812 144.324219 230.960938 138.605469 228.652344 133.226562 C 226.421875 128.035156 223.234375 123.394531 219.175781 119.4375 C 218.292969 118.566406 217.335938 117.707031 216.335938 116.894531 C 208.714844 110.660156 199.089844 107.222656 189.230469 107.222656 Z M 181.425781 163.410156 C 184.050781 165.363281 186.617188 167.578125 188.925781 169.890625 C 191.242188 167.578125 193.800781 165.363281 196.425781 163.410156 L 196.429688 163.410156 C 199.714844 160.933594 203.210938 158.738281 206.875 156.863281 C 216.664062 151.886719 213.832031 136.644531 203.542969 134.3125 C 203.328125 134.265625 203.113281 134.222656 202.894531 134.1875 C 202.15625 134.054688 201.40625 133.988281 200.65625 133.988281 C 195.863281 133.988281 191.054688 136.628906 188.925781 141.046875 C 186.710938 136.792969 181.972656 133.96875 177.207031 133.96875 C 176.453125 133.96875 175.703125 134.039062 174.960938 134.1875 C 174.746094 134.226562 174.527344 134.265625 174.308594 134.316406 C 163.996094 136.648438 161.210938 151.894531 170.976562 156.863281 C 174.640625 158.738281 178.136719 160.933594 181.425781 163.410156 M 189.230469 110.875 C 198.640625 110.875 207.273438 114.195312 214.035156 119.726562 C 214.933594 120.460938 215.800781 121.234375 216.632812 122.054688 C 223.945312 129.195312 228.484375 139.175781 228.484375 150.222656 C 228.484375 161.980469 223.339844 172.535156 215.183594 179.742188 C 214.308594 180.515625 213.402344 181.25 212.460938 181.9375 C 205.957031 186.734375 197.925781 189.566406 189.230469 189.566406 C 181.480469 189.566406 174.257812 187.316406 168.175781 183.433594 L 149.367188 190.792969 L 156.628906 172.148438 C 152.421875 165.886719 149.96875 158.339844 149.96875 150.222656 C 149.96875 128.492188 167.546875 110.875 189.230469 110.875 " fill-opacity="1" fill-rule="nonzero"/></g><g fill="#401244" fill-opacity="1"><g transform="translate(54.299093, 241.966576)"><g><path d="M 4.128906 0 L 26.996094 0 L 26.996094 -7.328125 L 11.949219 -7.328125 L 11.949219 -34.417969 L 4.128906 -34.417969 Z M 4.128906 0 "/></g></g></g><g fill="#401244" fill-opacity="1"><g transform="translate(81.145273, 241.966576)"><g><path d="M 16.421875 0.6875 C 24.980469 0.6875 30.878906 -4.867188 30.878906 -12.933594 C 30.878906 -20.945312 24.980469 -26.503906 16.421875 -26.503906 C 7.816406 -26.503906 1.917969 -20.945312 1.917969 -12.933594 C 1.917969 -4.867188 7.816406 0.6875 16.421875 0.6875 Z M 9.292969 -12.933594 C 9.292969 -17.160156 12.242188 -20.109375 16.421875 -20.109375 C 20.601562 -20.109375 23.503906 -17.160156 23.503906 -12.933594 C 23.503906 -8.703125 20.601562 -5.753906 16.421875 -5.753906 C 12.242188 -5.753906 9.292969 -8.703125 9.292969 -12.933594 Z M 9.292969 -12.933594 "/></g></g></g><g fill="#401244" fill-opacity="1"><g transform="translate(112.465863, 241.966576)"><g><path d="M 11.160156 0 L 18.636719 0 L 29.402344 -25.816406 L 21.289062 -25.816406 L 18.339844 -17.703125 L 14.949219 -8.949219 L 11.507812 -17.703125 L 8.605469 -25.816406 L 0.441406 -25.816406 Z M 11.160156 0 "/></g></g></g><g fill="#401244" fill-opacity="1"><g transform="translate(140.836295, 241.966576)"><g><path d="M 15.929688 0.6875 C 22.273438 0.6875 27.289062 -2.558594 29.550781 -8.015625 L 21.980469 -8.015625 C 20.75 -6.292969 18.539062 -5.308594 16.078125 -5.308594 C 12.6875 -5.308594 10.03125 -7.226562 9.34375 -10.769531 L 30.042969 -10.769531 C 30.484375 -20.210938 24.878906 -26.503906 16.03125 -26.503906 C 7.671875 -26.503906 1.917969 -20.945312 1.917969 -12.933594 C 1.917969 -4.867188 7.621094 0.6875 15.929688 0.6875 Z M 9.390625 -15.488281 C 10.226562 -18.636719 12.785156 -20.554688 16.078125 -20.554688 C 19.519531 -20.554688 21.980469 -18.636719 22.816406 -15.488281 Z M 9.390625 -15.488281 "/></g></g></g><g fill="#401244" fill-opacity="1"><g transform="translate(171.271839, 241.966576)"><g/></g></g><g fill="#401244" fill-opacity="1"><g transform="translate(181.351298, 241.966576)"><g><path d="M 20.160156 0.6875 C 31.519531 0.6875 38.84375 -7.71875 38.058594 -19.519531 L 18.636719 -19.519531 L 18.636719 -13.472656 L 29.796875 -13.472656 C 28.8125 -9.292969 25.273438 -6.492188 20.257812 -6.492188 C 13.964844 -6.492188 9.933594 -11.015625 9.933594 -17.210938 C 9.933594 -23.503906 14.113281 -27.929688 20.160156 -27.929688 C 23.996094 -27.929688 27.191406 -26.160156 28.863281 -23.160156 L 37.269531 -23.160156 C 35.207031 -30.386719 28.371094 -35.109375 20.011719 -35.109375 C 9.539062 -35.109375 2.113281 -27.683594 2.113281 -17.210938 C 2.113281 -6.6875 9.589844 0.6875 20.160156 0.6875 Z M 20.160156 0.6875 "/></g></g></g><g fill="#401244" fill-opacity="1"><g transform="translate(219.998102, 241.966576)"><g><path d="M 3.738281 0 L 11.210938 0 L 11.210938 -11.40625 C 11.210938 -16.964844 13.816406 -19.027344 18.09375 -19.027344 L 20.945312 -19.027344 L 20.945312 -25.816406 L 18.144531 -25.816406 C 14.359375 -25.816406 11.949219 -24.78125 10.277344 -22.371094 L 9.292969 -25.816406 L 3.738281 -25.816406 Z M 3.738281 0 "/></g></g></g><g fill="#401244" fill-opacity="1"><g transform="translate(241.140655, 241.966576)"><g><path d="M 12.34375 0.492188 C 16.175781 0.492188 19.324219 -0.738281 21.535156 -3 L 22.371094 0 L 27.929688 0 L 27.929688 -15.539062 C 27.929688 -22.371094 23.308594 -26.503906 15.585938 -26.503906 C 9 -26.503906 4.671875 -23.355469 3.738281 -17.75 L 10.914062 -17.75 C 11.359375 -19.570312 13.226562 -20.800781 15.636719 -20.800781 C 18.585938 -20.800781 20.601562 -19.128906 20.601562 -16.570312 L 20.601562 -15.390625 L 11.261719 -15.390625 C 5.902344 -15.390625 2.457031 -12.292969 2.457031 -7.523438 C 2.457031 -2.558594 6.246094 0.492188 12.34375 0.492188 Z M 9.835938 -7.816406 C 9.835938 -9.589844 11.308594 -10.71875 13.570312 -10.71875 L 20.652344 -10.71875 C 20.503906 -7.226562 17.800781 -4.867188 14.0625 -4.867188 C 11.507812 -4.867188 9.835938 -6.046875 9.835938 -7.816406 Z M 9.835938 -7.816406 "/></g></g></g><g fill="#401244" fill-opacity="1"><g transform="translate(270.838655, 241.966576)"><g><path d="M 3.738281 0 L 11.210938 0 L 11.210938 -13.964844 C 11.210938 -17.703125 13.277344 -20.109375 16.472656 -20.109375 C 19.570312 -20.109375 21.488281 -17.800781 21.488281 -14.160156 L 21.488281 0 L 28.863281 0 L 28.863281 -13.964844 C 28.863281 -17.703125 30.929688 -20.109375 34.125 -20.109375 C 37.222656 -20.109375 39.140625 -17.800781 39.140625 -14.160156 L 39.140625 0 L 46.613281 0 L 46.613281 -15.046875 C 46.613281 -22.125 42.386719 -26.503906 35.796875 -26.503906 C 31.863281 -26.503906 28.617188 -24.980469 26.503906 -22.273438 C 24.683594 -25.027344 21.683594 -26.503906 17.996094 -26.503906 C 14.703125 -26.503906 11.898438 -25.371094 10.03125 -23.160156 L 9.292969 -25.816406 L 3.738281 -25.816406 Z M 3.738281 0 "/></g></g></g></svg>