<svg xmlns="http://www.w3.org/2000/svg" xmlns:xlink="http://www.w3.org/1999/xlink" zoomAndPan="magnify" preserveAspectRatio="xMidYMid meet" version="1.0" viewBox="51.7 50.84 271.5 273.02"><defs><clipPath id="ec2aba7b09"><path d="M 51.695312 50.839844 L 323.195312 50.839844 L 323.195312 323.839844 L 51.695312 323.839844 Z M 51.695312 50.839844 " clip-rule="nonzero"/></clipPath></defs><g clip-path="url(#ec2aba7b09)"><path fill="#e52687" d="M 172.492188 210.210938 C 162.835938 203.195312 152.628906 196.929688 142.097656 191.558594 C 128.882812 184.851562 129.5 171.144531 130.003906 167.097656 C 131.121094 158.164062 136.929688 146.71875 149.632812 143.851562 L 149.695312 143.839844 L 149.753906 143.828125 C 150.109375 143.742188 150.585938 143.652344 151.089844 143.5625 L 151.199219 143.539062 L 151.300781 143.523438 C 152.820312 143.222656 154.402344 143.074219 156 143.074219 C 166.433594 143.074219 177.054688 149.457031 181.832031 158.589844 L 192.054688 178.15625 L 201.652344 158.277344 C 206.027344 149.214844 216.351562 143.128906 227.351562 143.128906 C 228.996094 143.128906 230.628906 143.273438 232.203125 143.554688 L 232.269531 143.566406 L 232.335938 143.574219 C 232.726562 143.644531 233.167969 143.730469 233.714844 143.851562 C 245.59375 146.546875 252.121094 157.488281 253.320312 167.144531 C 253.824219 171.179688 254.433594 184.863281 241.25 191.546875 C 230.699219 196.929688 220.488281 203.195312 210.835938 210.210938 L 210.828125 210.210938 L 210.15625 210.703125 C 209.664062 211.066406 209.171875 211.429688 208.679688 211.796875 L 207.871094 212.390625 C 202.292969 216.523438 196.871094 220.96875 191.664062 225.671875 C 186.449219 220.972656 180.960938 216.472656 175.453125 212.390625 L 172.511719 210.210938 Z M 192.585938 50.855469 C 157.714844 50.855469 124.9375 64.421875 100.28125 89.058594 C 75.625 113.695312 62.046875 146.449219 62.046875 181.289062 C 62.046875 205.351562 68.585938 228.640625 81.007812 249.019531 L 60.976562 300.316406 L 51.78125 323.859375 L 75.34375 314.671875 L 127.460938 294.347656 C 147.222656 305.726562 169.617188 311.71875 192.585938 311.71875 C 220.621094 311.71875 247.335938 302.96875 269.839844 286.417969 C 272.902344 284.183594 275.96875 281.71875 278.902344 279.121094 C 306.984375 254.394531 323.109375 218.726562 323.109375 181.289062 C 323.109375 163.394531 319.546875 146.046875 312.515625 129.738281 C 305.730469 113.988281 296.035156 99.914062 283.695312 87.902344 C 281.007812 85.265625 278.085938 82.660156 275.050781 80.1875 C 251.871094 61.277344 222.582031 50.855469 192.585938 50.855469 Z M 168.835938 221.292969 L 168.84375 221.292969 C 176.832031 227.210938 184.632812 233.929688 191.664062 240.945312 C 198.707031 233.929688 206.492188 227.210938 214.480469 221.292969 L 214.492188 221.292969 C 224.484375 213.777344 235.121094 207.117188 246.273438 201.429688 C 276.042969 186.332031 267.433594 140.101562 236.132812 133.03125 C 235.480469 132.886719 234.824219 132.753906 234.15625 132.640625 C 231.910156 132.242188 229.632812 132.046875 227.351562 132.046875 C 212.765625 132.046875 198.136719 140.050781 191.664062 153.460938 C 184.917969 140.554688 170.5 131.988281 156 131.988281 C 153.714844 131.988281 151.425781 132.203125 149.167969 132.640625 C 148.511719 132.765625 147.847656 132.886719 147.191406 133.042969 C 115.8125 140.117188 107.339844 186.355469 137.054688 201.429688 C 148.203125 207.117188 158.839844 213.777344 168.835938 221.292969 M 192.585938 61.9375 C 221.214844 61.9375 247.480469 72.003906 268.046875 88.785156 C 270.785156 91.011719 273.425781 93.363281 275.957031 95.847656 C 298.207031 117.503906 312.015625 147.785156 312.015625 181.289062 C 312.015625 216.960938 296.363281 248.972656 271.539062 270.828125 C 268.886719 273.175781 266.125 275.402344 263.265625 277.488281 C 243.476562 292.042969 219.039062 300.632812 192.585938 300.632812 C 169.011719 300.632812 147.039062 293.804688 128.523438 282.035156 L 71.308594 304.347656 L 93.394531 247.792969 C 80.605469 228.796875 73.140625 205.90625 73.140625 181.289062 C 73.140625 115.375 126.617188 61.9375 192.585938 61.9375 " fill-opacity="1" fill-rule="nonzero"/></g></svg>