<svg xmlns="http://www.w3.org/2000/svg" xmlns:xlink="http://www.w3.org/1999/xlink" zoomAndPan="magnify" preserveAspectRatio="xMidYMid meet" version="1.0" viewBox="31.28 164.32 313.52 43.32"><defs><g/></defs><g fill="#401244" fill-opacity="1"><g transform="translate(26.276478, 206.81478)"><g><path d="M 5 0 L 32.675781 0 L 32.675781 -8.867188 L 14.460938 -8.867188 L 14.460938 -41.660156 L 5 -41.660156 Z M 5 0 "/></g></g></g><g fill="#401244" fill-opacity="1"><g transform="translate(58.77052, 206.81478)"><g><path d="M 19.878906 0.832031 C 30.234375 0.832031 37.375 -5.890625 37.375 -15.652344 C 37.375 -25.351562 30.234375 -32.078125 19.878906 -32.078125 C 9.464844 -32.078125 2.320312 -25.351562 2.320312 -15.652344 C 2.320312 -5.890625 9.464844 0.832031 19.878906 0.832031 Z M 11.25 -15.652344 C 11.25 -20.769531 14.820312 -24.339844 19.878906 -24.339844 C 24.9375 -24.339844 28.449219 -20.769531 28.449219 -15.652344 C 28.449219 -10.535156 24.9375 -6.964844 19.878906 -6.964844 C 14.820312 -6.964844 11.25 -10.535156 11.25 -15.652344 Z M 11.25 -15.652344 "/></g></g></g><g fill="#401244" fill-opacity="1"><g transform="translate(96.680293, 206.81478)"><g><path d="M 13.511719 0 L 22.554688 0 L 35.589844 -31.246094 L 25.769531 -31.246094 L 22.199219 -21.425781 L 18.09375 -10.832031 L 13.925781 -21.425781 L 10.414062 -31.246094 L 0.535156 -31.246094 Z M 13.511719 0 "/></g></g></g><g fill="#401244" fill-opacity="1"><g transform="translate(131.019257, 206.81478)"><g><path d="M 19.28125 0.832031 C 26.960938 0.832031 33.03125 -3.09375 35.769531 -9.699219 L 26.601562 -9.699219 C 25.117188 -7.617188 22.4375 -6.425781 19.460938 -6.425781 C 15.355469 -6.425781 12.140625 -8.75 11.308594 -13.035156 L 36.363281 -13.035156 C 36.898438 -24.460938 30.113281 -32.078125 19.402344 -32.078125 C 9.285156 -32.078125 2.320312 -25.351562 2.320312 -15.652344 C 2.320312 -5.890625 9.226562 0.832031 19.28125 0.832031 Z M 11.367188 -18.746094 C 12.378906 -22.554688 15.472656 -24.878906 19.460938 -24.878906 C 23.628906 -24.878906 26.601562 -22.554688 27.613281 -18.746094 Z M 11.367188 -18.746094 "/></g></g></g><g fill="#401244" fill-opacity="1"><g transform="translate(167.857788, 206.81478)"><g/></g></g><g fill="#401244" fill-opacity="1"><g transform="translate(180.05775, 206.81478)"><g><path d="M 24.402344 0.832031 C 38.148438 0.832031 47.015625 -9.34375 46.066406 -23.628906 L 22.554688 -23.628906 L 22.554688 -16.308594 L 36.066406 -16.308594 C 34.875 -11.25 30.589844 -7.855469 24.519531 -7.855469 C 16.902344 -7.855469 12.023438 -13.332031 12.023438 -20.832031 C 12.023438 -28.449219 17.082031 -33.804688 24.402344 -33.804688 C 29.042969 -33.804688 32.910156 -31.660156 34.933594 -28.03125 L 45.113281 -28.03125 C 42.613281 -36.78125 34.339844 -42.492188 24.222656 -42.492188 C 11.546875 -42.492188 2.558594 -33.507812 2.558594 -20.832031 C 2.558594 -8.09375 11.605469 0.832031 24.402344 0.832031 Z M 24.402344 0.832031 "/></g></g></g><g fill="#401244" fill-opacity="1"><g transform="translate(226.835015, 206.81478)"><g><path d="M 4.523438 0 L 13.570312 0 L 13.570312 -13.808594 C 13.570312 -20.53125 16.722656 -23.03125 21.902344 -23.03125 L 25.351562 -23.03125 L 25.351562 -31.246094 L 21.960938 -31.246094 C 17.378906 -31.246094 14.460938 -29.996094 12.4375 -27.078125 L 11.25 -31.246094 L 4.523438 -31.246094 Z M 4.523438 0 "/></g></g></g><g fill="#401244" fill-opacity="1"><g transform="translate(252.425509, 206.81478)"><g><path d="M 14.9375 0.59375 C 19.582031 0.59375 23.390625 -0.894531 26.066406 -3.628906 L 27.078125 0 L 33.804688 0 L 33.804688 -18.808594 C 33.804688 -27.078125 28.210938 -32.078125 18.867188 -32.078125 C 10.890625 -32.078125 5.652344 -28.269531 4.523438 -21.484375 L 13.210938 -21.484375 C 13.746094 -23.6875 16.007812 -25.175781 18.925781 -25.175781 C 22.496094 -25.175781 24.9375 -23.152344 24.9375 -20.054688 L 24.9375 -18.628906 L 13.628906 -18.628906 C 7.140625 -18.628906 2.976562 -14.878906 2.976562 -9.105469 C 2.976562 -3.09375 7.558594 0.59375 14.9375 0.59375 Z M 11.902344 -9.464844 C 11.902344 -11.605469 13.6875 -12.972656 16.425781 -12.972656 L 24.996094 -12.972656 C 24.816406 -8.75 21.542969 -5.890625 17.019531 -5.890625 C 13.925781 -5.890625 11.902344 -7.320312 11.902344 -9.464844 Z M 11.902344 -9.464844 "/></g></g></g><g fill="#401244" fill-opacity="1"><g transform="translate(288.371334, 206.81478)"><g><path d="M 4.523438 0 L 13.570312 0 L 13.570312 -16.902344 C 13.570312 -21.425781 16.070312 -24.339844 19.9375 -24.339844 C 23.6875 -24.339844 26.007812 -21.542969 26.007812 -17.140625 L 26.007812 0 L 34.933594 0 L 34.933594 -16.902344 C 34.933594 -21.425781 37.433594 -24.339844 41.304688 -24.339844 C 45.054688 -24.339844 47.375 -21.542969 47.375 -17.140625 L 47.375 0 L 56.421875 0 L 56.421875 -18.210938 C 56.421875 -26.78125 51.300781 -32.078125 43.328125 -32.078125 C 38.566406 -32.078125 34.636719 -30.234375 32.078125 -26.960938 C 29.875 -30.292969 26.246094 -32.078125 21.78125 -32.078125 C 17.796875 -32.078125 14.402344 -30.710938 12.140625 -28.03125 L 11.25 -31.246094 L 4.523438 -31.246094 Z M 4.523438 0 "/></g></g></g></svg>