<svg xmlns="http://www.w3.org/2000/svg" xmlns:xlink="http://www.w3.org/1999/xlink" zoomAndPan="magnify" preserveAspectRatio="xMidYMid meet" version="1.0" viewBox="30 147.31 316.23 66"><defs><g/><clipPath id="51d15ab806"><path d="M 30 147.308594 L 95.25 147.308594 L 95.25 213.308594 L 30 213.308594 Z M 30 147.308594 " clip-rule="nonzero"/></clipPath></defs><g fill="#401244" fill-opacity="1"><g transform="translate(104.797122, 195.766179)"><g><path d="M 3.789062 0 L 24.769531 0 L 24.769531 -6.722656 L 10.964844 -6.722656 L 10.964844 -31.582031 L 3.789062 -31.582031 Z M 3.789062 0 "/></g></g></g><g fill="#401244" fill-opacity="1"><g transform="translate(129.426431, 195.766179)"><g><path d="M 15.070312 0.632812 C 22.917969 0.632812 28.332031 -4.464844 28.332031 -11.867188 C 28.332031 -19.21875 22.917969 -24.316406 15.070312 -24.316406 C 7.171875 -24.316406 1.757812 -19.21875 1.757812 -11.867188 C 1.757812 -4.464844 7.171875 0.632812 15.070312 0.632812 Z M 8.527344 -11.867188 C 8.527344 -15.746094 11.234375 -18.453125 15.070312 -18.453125 C 18.902344 -18.453125 21.566406 -15.746094 21.566406 -11.867188 C 21.566406 -7.984375 18.902344 -5.277344 15.070312 -5.277344 C 11.234375 -5.277344 8.527344 -7.984375 8.527344 -11.867188 Z M 8.527344 -11.867188 "/></g></g></g><g fill="#401244" fill-opacity="1"><g transform="translate(158.160672, 195.766179)"><g><path d="M 10.242188 0 L 17.097656 0 L 26.980469 -23.6875 L 19.535156 -23.6875 L 16.828125 -16.242188 L 13.714844 -8.210938 L 10.558594 -16.242188 L 7.894531 -23.6875 L 0.40625 -23.6875 Z M 10.242188 0 "/></g></g></g><g fill="#401244" fill-opacity="1"><g transform="translate(184.188371, 195.766179)"><g><path d="M 14.617188 0.632812 C 20.4375 0.632812 25.039062 -2.347656 27.117188 -7.355469 L 20.167969 -7.355469 C 19.039062 -5.773438 17.007812 -4.871094 14.753906 -4.871094 C 11.640625 -4.871094 9.203125 -6.632812 8.570312 -9.878906 L 27.566406 -9.878906 C 27.972656 -18.542969 22.828125 -24.316406 14.707031 -24.316406 C 7.039062 -24.316406 1.757812 -19.21875 1.757812 -11.867188 C 1.757812 -4.464844 6.992188 0.632812 14.617188 0.632812 Z M 8.617188 -14.210938 C 9.382812 -17.097656 11.730469 -18.859375 14.753906 -18.859375 C 17.910156 -18.859375 20.167969 -17.097656 20.933594 -14.210938 Z M 8.617188 -14.210938 "/></g></g></g><g fill="#401244" fill-opacity="1"><g transform="translate(212.110654, 195.766179)"><g/></g></g><g fill="#401244" fill-opacity="1"><g transform="translate(221.357724, 195.766179)"><g><path d="M 18.496094 0.632812 C 28.921875 0.632812 35.640625 -7.082031 34.921875 -17.910156 L 17.097656 -17.910156 L 17.097656 -12.363281 L 27.339844 -12.363281 C 26.4375 -8.527344 23.191406 -5.957031 18.589844 -5.957031 C 12.8125 -5.957031 9.113281 -10.105469 9.113281 -15.789062 C 9.113281 -21.566406 12.949219 -25.625 18.496094 -25.625 C 22.015625 -25.625 24.949219 -24.003906 26.484375 -21.25 L 34.199219 -21.25 C 32.304688 -27.882812 26.03125 -32.214844 18.363281 -32.214844 C 8.753906 -32.214844 1.941406 -25.402344 1.941406 -15.789062 C 1.941406 -6.136719 8.796875 0.632812 18.496094 0.632812 Z M 18.496094 0.632812 "/></g></g></g><g fill="#401244" fill-opacity="1"><g transform="translate(256.81324, 195.766179)"><g><path d="M 3.429688 0 L 10.285156 0 L 10.285156 -10.46875 C 10.285156 -15.566406 12.679688 -17.460938 16.601562 -17.460938 L 19.21875 -17.460938 L 19.21875 -23.6875 L 16.648438 -23.6875 C 13.175781 -23.6875 10.964844 -22.738281 9.429688 -20.527344 L 8.527344 -23.6875 L 3.429688 -23.6875 Z M 3.429688 0 "/></g></g></g><g fill="#401244" fill-opacity="1"><g transform="translate(276.209887, 195.766179)"><g><path d="M 11.324219 0.449219 C 14.84375 0.449219 17.730469 -0.675781 19.761719 -2.753906 L 20.527344 0 L 25.625 0 L 25.625 -14.257812 C 25.625 -20.527344 21.386719 -24.316406 14.300781 -24.316406 C 8.257812 -24.316406 4.285156 -21.429688 3.429688 -16.289062 L 10.015625 -16.289062 C 10.421875 -17.957031 12.136719 -19.085938 14.347656 -19.085938 C 17.054688 -19.085938 18.902344 -17.550781 18.902344 -15.203125 L 18.902344 -14.121094 L 10.332031 -14.121094 C 5.414062 -14.121094 2.253906 -11.277344 2.253906 -6.902344 C 2.253906 -2.347656 5.730469 0.449219 11.324219 0.449219 Z M 9.023438 -7.171875 C 9.023438 -8.796875 10.375 -9.835938 12.453125 -9.835938 L 18.949219 -9.835938 C 18.8125 -6.632812 16.332031 -4.464844 12.902344 -4.464844 C 10.558594 -4.464844 9.023438 -5.550781 9.023438 -7.171875 Z M 9.023438 -7.171875 "/></g></g></g><g fill="#401244" fill-opacity="1"><g transform="translate(303.455528, 195.766179)"><g><path d="M 3.429688 0 L 10.285156 0 L 10.285156 -12.8125 C 10.285156 -16.242188 12.179688 -18.453125 15.113281 -18.453125 C 17.957031 -18.453125 19.714844 -16.332031 19.714844 -12.992188 L 19.714844 0 L 26.484375 0 L 26.484375 -12.8125 C 26.484375 -16.242188 28.378906 -18.453125 31.3125 -18.453125 C 34.152344 -18.453125 35.914062 -16.332031 35.914062 -12.992188 L 35.914062 0 L 42.769531 0 L 42.769531 -13.804688 C 42.769531 -20.300781 38.890625 -24.316406 32.84375 -24.316406 C 29.234375 -24.316406 26.257812 -22.917969 24.316406 -20.4375 C 22.648438 -22.964844 19.898438 -24.316406 16.511719 -24.316406 C 13.488281 -24.316406 10.917969 -23.28125 9.203125 -21.25 L 8.527344 -23.6875 L 3.429688 -23.6875 Z M 3.429688 0 "/></g></g></g><g clip-path="url(#51d15ab806)"><path fill="#e52687" d="M 59.03125 185.839844 C 56.710938 184.140625 54.257812 182.628906 51.726562 181.328125 C 48.550781 179.707031 48.699219 176.394531 48.820312 175.414062 C 49.089844 173.257812 50.484375 170.488281 53.539062 169.796875 L 53.550781 169.792969 L 53.566406 169.789062 C 53.652344 169.769531 53.765625 169.746094 53.886719 169.726562 L 53.914062 169.71875 L 53.925781 169.71875 L 53.9375 169.714844 C 54.304688 169.644531 54.683594 169.605469 55.066406 169.605469 C 57.574219 169.605469 60.128906 171.148438 61.277344 173.359375 L 63.734375 178.089844 L 66.039062 173.28125 C 67.089844 171.09375 69.570312 169.621094 72.214844 169.621094 C 72.609375 169.621094 73.003906 169.65625 73.382812 169.722656 L 73.414062 169.730469 C 73.507812 169.746094 73.613281 169.765625 73.746094 169.796875 C 76.597656 170.449219 78.167969 173.09375 78.457031 175.425781 C 78.578125 176.402344 78.722656 179.710938 75.554688 181.328125 C 73.019531 182.628906 70.566406 184.140625 68.246094 185.839844 L 68.082031 185.957031 C 67.964844 186.042969 67.847656 186.132812 67.726562 186.222656 L 67.535156 186.363281 C 66.195312 187.363281 64.890625 188.4375 63.636719 189.574219 C 62.386719 188.441406 61.066406 187.351562 59.742188 186.363281 L 59.035156 185.839844 Z M 63.859375 147.3125 C 55.480469 147.3125 47.601562 150.59375 41.675781 156.546875 C 35.75 162.503906 32.488281 170.421875 32.488281 178.847656 C 32.488281 184.664062 34.058594 190.292969 37.046875 195.21875 L 32.230469 207.621094 L 30.019531 213.3125 L 35.683594 211.09375 L 48.210938 206.179688 C 52.957031 208.929688 58.339844 210.378906 63.859375 210.378906 C 70.597656 210.378906 77.019531 208.261719 82.425781 204.261719 C 83.164062 203.722656 83.898438 203.125 84.605469 202.496094 C 91.355469 196.519531 95.230469 187.898438 95.230469 178.847656 C 95.230469 174.519531 94.371094 170.328125 92.683594 166.382812 C 91.050781 162.574219 88.722656 159.171875 85.757812 156.269531 C 85.109375 155.632812 84.410156 155.003906 83.679688 154.40625 C 78.109375 149.832031 71.070312 147.3125 63.859375 147.3125 Z M 58.152344 188.519531 L 58.15625 188.519531 C 60.074219 189.949219 61.949219 191.574219 63.636719 193.269531 C 65.332031 191.574219 67.203125 189.949219 69.121094 188.519531 L 69.125 188.519531 C 71.527344 186.699219 74.082031 185.089844 76.761719 183.714844 C 83.917969 180.066406 81.847656 168.890625 74.328125 167.179688 C 74.167969 167.144531 74.011719 167.113281 73.851562 167.085938 C 73.3125 166.988281 72.761719 166.941406 72.214844 166.941406 C 68.710938 166.941406 65.195312 168.875 63.636719 172.117188 C 62.019531 168.996094 58.550781 166.925781 55.066406 166.925781 C 54.519531 166.925781 53.96875 166.980469 53.425781 167.085938 C 53.269531 167.117188 53.109375 167.144531 52.953125 167.183594 C 45.410156 168.890625 43.375 180.070312 50.515625 183.714844 C 53.195312 185.089844 55.75 186.699219 58.152344 188.519531 M 63.859375 149.992188 C 70.742188 149.992188 77.054688 152.425781 81.996094 156.484375 C 82.652344 157.019531 83.289062 157.589844 83.898438 158.191406 C 89.242188 163.425781 92.5625 170.746094 92.5625 178.847656 C 92.5625 187.46875 88.800781 195.207031 82.835938 200.492188 C 82.199219 201.0625 81.535156 201.597656 80.847656 202.101562 C 76.089844 205.621094 70.21875 207.699219 63.859375 207.699219 C 58.195312 207.699219 52.914062 206.046875 48.464844 203.203125 L 34.714844 208.597656 L 40.023438 194.925781 C 36.949219 190.332031 35.152344 184.796875 35.152344 178.847656 C 35.152344 162.910156 48.007812 149.992188 63.859375 149.992188 " fill-opacity="1" fill-rule="nonzero"/></g></svg>